<?xml version="1.0" encoding="UTF-8" standalone="no"?>
<svg
   xmlns:dc="http://purl.org/dc/elements/1.1/"
   xmlns:cc="http://creativecommons.org/ns#"
   xmlns:rdf="http://www.w3.org/1999/02/22-rdf-syntax-ns#"
   xmlns:svg="http://www.w3.org/2000/svg"
   xmlns="http://www.w3.org/2000/svg"
   xmlns:sodipodi="http://sodipodi.sourceforge.net/DTD/sodipodi-0.dtd"
   xmlns:inkscape="http://www.inkscape.org/namespaces/inkscape"
   inkscape:version="1.0beta1 (fe3e306, 2019-09-17)"
   sodipodi:docname="rating-3.svg"
   id="svg881"
   version="1.1"
   viewBox="0 0 576 512"
   role="img"
   class="svg-inline--fa fa-star fa-w-18"
   data-icon="star"
   data-prefix="far"
   focusable="false"
   aria-hidden="true">
  <sodipodi:namedview
     inkscape:current-layer="svg881"
     inkscape:window-maximized="1"
     inkscape:window-y="0"
     inkscape:window-x="0"
     inkscape:cy="284.24206"
     inkscape:cx="317.05266"
     inkscape:zoom="0.29140533"
     showgrid="false"
     id="namedview2452"
     inkscape:window-height="1016"
     inkscape:window-width="1920"
     inkscape:pageshadow="2"
     inkscape:pageopacity="0"
     guidetolerance="10"
     gridtolerance="10"
     objecttolerance="10"
     borderopacity="1"
     inkscape:document-rotation="0"
     bordercolor="#666666"
     pagecolor="#ffffff" />
  <metadata
     id="metadata887">
    <rdf:RDF>
      <cc:Work
         rdf:about="">
        <dc:format>image/svg+xml</dc:format>
        <dc:type
           rdf:resource="http://purl.org/dc/dcmitype/StillImage" />
        <dc:title />
      </cc:Work>
    </rdf:RDF>
  </metadata>
  <defs
     id="defs885" />
  <path
     style="fill:#cecece;fill-opacity:1;stroke:none"
     inkscape:connector-curvature="0"
     d="m 288.03781,-0.0315018 c -11.41249,-0.0375 -22.8383,5.8625 -28.73828,17.8124998 L 194.0007,150.18139 47.901088,171.48217 c -26.2,3.8 -36.701164,36.0996 -17.70117,54.59961 l 105.701172,102.99997 -25,145.5 c -4.5,26.3 23.19844,45.9992 46.39844,33.6992 l 130.70117,-68.6992 130.69922,68.6992 c 23.20001,12.2 50.90039,-7.3992 46.40039,-33.6992 l -25,-145.5 105.69922,-102.99997 c 19,-18.50001 8.50078,-50.79961 -17.69922,-54.59961 L 382.0007,150.18139 316.69992,17.780998 C 310.84992,5.9809982 299.45031,0.0059982 288.03781,-0.0315018 Z m -0.0371,68.1132798 62.19922,126.000002 139,20.19922 -100.59961,98 -100.59962,-56.28125 -31.09961,-30.95899 -31.10156,-30.95898 z"
     id="path879-3-6-0" />
</svg>
